<?xml version="1.0" encoding="UTF-8"?>
<svg id="Capa_2" data-name="Capa 2" xmlns="http://www.w3.org/2000/svg" viewBox="0 0 548.62 96.1">
  <defs>
    <style>
      .cls-1 {
        fill: #1e1e23;
      }

      .cls-2 {
        fill: #0495fe;
      }
    </style>
  </defs>
  <g id="Capa_1-2" data-name="Capa 1">
    <g>
      <path class="cls-2" d="M425.43,64.05l-1.9,13.08h-48.04l8.68-59.84h46.93l-1.9,13.08h-30.18l-1.46,10.09h26.59l-1.84,12.65h-26.59l-1.59,10.94h31.29Z"/>
      <path class="cls-2" d="M494.14,17.29l-8.68,59.84h-13.93l-21.79-31.89-4.63,31.89h-16.58l8.68-59.84h13.93l21.79,31.89,4.63-31.89h16.58Z"/>
      <path class="cls-2" d="M492.06,71.74l7.37-12.48c4.79,3.5,11.97,5.9,18.89,5.9s10.03-1.97,10.45-4.87c1.38-9.49-33.65-2.56-30.42-24.79,1.55-10.69,11.53-19.4,29.32-19.4,7.78,0,15.55,1.8,20.96,5.21l-7.04,12.57c-5.28-3.08-10.7-4.62-15.91-4.62-7.1,0-10.01,2.39-10.44,5.39-1.33,9.15,33.6,2.31,30.4,24.36-1.51,10.43-11.52,19.32-29.3,19.32-9.83,0-19.19-2.65-24.26-6.58Z"/>
      <path class="cls-1" d="M136.36,79.16c-4.96,0-9.38-.77-13.26-2.31-3.89-1.54-6.95-3.63-9.17-6.26-2.23-2.64-3.34-5.62-3.34-8.93,0-2.54.63-4.86,1.9-6.95,1.27-2.1,2.98-3.84,5.14-5.23,2.16-1.39,4.57-2.28,7.22-2.68v-.48c-3.5-.6-6.37-2.15-8.62-4.66-2.25-2.51-3.37-5.47-3.37-8.89,0-3.22,1.02-6.08,3.06-8.59,2.04-2.51,4.83-4.48,8.36-5.92,3.54-1.44,7.56-2.16,12.08-2.16s8.54.72,12.08,2.17c3.54,1.45,6.33,3.43,8.36,5.94,2.04,2.51,3.06,5.36,3.06,8.56,0,3.44-1.14,6.41-3.42,8.9-2.28,2.5-5.14,4.05-8.57,4.65v.48c2.64.4,5.04,1.29,7.19,2.68,2.16,1.39,3.88,3.13,5.16,5.23,1.28,2.1,1.92,4.42,1.92,6.95,0,3.32-1.11,6.29-3.34,8.93-2.23,2.64-5.29,4.73-9.17,6.26-3.89,1.54-8.31,2.31-13.27,2.31ZM136.36,67.65c1.58,0,2.98-.32,4.2-.96,1.22-.64,2.18-1.52,2.89-2.65.71-1.13,1.06-2.4,1.06-3.82s-.36-2.68-1.06-3.78c-.71-1.1-1.67-1.96-2.89-2.59s-2.62-.94-4.2-.94-2.95.31-4.18.94-2.2,1.49-2.91,2.59c-.71,1.1-1.06,2.36-1.06,3.78s.35,2.69,1.06,3.81c.71,1.12,1.68,2,2.91,2.65,1.23.65,2.62.97,4.18.97ZM136.36,41.39c1.4,0,2.64-.29,3.72-.87,1.08-.58,1.93-1.38,2.55-2.4.62-1.02.93-2.17.93-3.45s-.31-2.41-.93-3.4c-.62-.99-1.47-1.77-2.55-2.34-1.08-.57-2.32-.85-3.72-.85s-2.61.28-3.7.85c-1.09.57-1.94,1.35-2.56,2.34-.62.99-.93,2.12-.93,3.4s.31,2.42.93,3.43c.62,1.01,1.47,1.81,2.56,2.4,1.09.59,2.32.88,3.7.88Z"/>
      <path class="cls-1" d="M192.94,80c-5.58-.02-10.39-1.31-14.45-3.87-4.06-2.56-7.19-6.24-9.38-11.06-2.2-4.82-3.29-10.59-3.27-17.33.02-6.75,1.12-12.49,3.31-17.21,2.19-4.72,5.31-8.3,9.35-10.76,4.05-2.46,8.86-3.69,14.43-3.69s10.39,1.23,14.45,3.7c4.06,2.47,7.18,6.06,9.38,10.78,2.2,4.72,3.29,10.44,3.27,17.18,0,6.77-1.1,12.57-3.3,17.39-2.2,4.82-5.32,8.5-9.37,11.05-4.05,2.55-8.86,3.82-14.43,3.82ZM192.94,66.45c2.88,0,5.24-1.5,7.09-4.51,1.85-3.01,2.76-7.74,2.74-14.19,0-4.22-.42-7.66-1.26-10.34-.84-2.68-2-4.66-3.48-5.95-1.48-1.29-3.18-1.93-5.1-1.93-2.88,0-5.23,1.46-7.04,4.38-1.82,2.92-2.75,7.53-2.79,13.85-.02,4.3.39,7.83,1.23,10.6.84,2.77,2,4.81,3.49,6.13,1.49,1.32,3.19,1.98,5.11,1.98Z"/>
      <path class="cls-1" d="M224.45,78.32v-11.99l22.9-18.95c1.52-1.26,2.82-2.44,3.91-3.55,1.09-1.11,1.93-2.25,2.52-3.43.59-1.18.88-2.49.88-3.93,0-1.58-.33-2.93-1-4.05-.67-1.12-1.59-1.98-2.77-2.59-1.18-.61-2.54-.91-4.08-.91s-2.89.31-4.06.93c-1.17.62-2.07,1.53-2.71,2.73-.64,1.2-.96,2.66-.96,4.38h-15.83c0-4.32.97-8.03,2.91-11.15,1.94-3.12,4.68-5.52,8.21-7.19s7.68-2.52,12.44-2.52,9.18.78,12.78,2.35c3.61,1.57,6.4,3.77,8.36,6.61,1.97,2.84,2.95,6.17,2.95,9.98,0,2.36-.49,4.7-1.47,7.03-.98,2.33-2.74,4.9-5.28,7.72-2.54,2.82-6.15,6.18-10.82,10.07l-5.76,4.8v.36h23.98v13.31h-47.12Z"/>
      <path class="cls-1" d="M302.37,80c-5.58-.02-10.39-1.31-14.45-3.87-4.06-2.56-7.19-6.24-9.38-11.06-2.2-4.82-3.29-10.59-3.27-17.33.02-6.75,1.12-12.49,3.31-17.21,2.19-4.72,5.31-8.3,9.35-10.76,4.05-2.46,8.86-3.69,14.43-3.69s10.39,1.23,14.45,3.7c4.06,2.47,7.18,6.06,9.38,10.78,2.2,4.72,3.29,10.44,3.27,17.18,0,6.77-1.1,12.57-3.3,17.39-2.2,4.82-5.32,8.5-9.37,11.05-4.05,2.55-8.86,3.82-14.43,3.82ZM302.37,66.45c2.88,0,5.24-1.5,7.09-4.51,1.85-3.01,2.76-7.74,2.74-14.19,0-4.22-.42-7.66-1.26-10.34-.84-2.68-2-4.66-3.48-5.95-1.48-1.29-3.18-1.93-5.1-1.93-2.88,0-5.23,1.46-7.04,4.38-1.82,2.92-2.75,7.53-2.79,13.85-.02,4.3.39,7.83,1.23,10.6.84,2.77,2,4.81,3.49,6.13,1.49,1.32,3.19,1.98,5.11,1.98Z"/>
      <path class="cls-2" d="M371.78,63.71h-28.55l6.74-46.42h-16.93l-1.4,9.65c.15.3.31.58.45.89,2.59,5.57,3.9,12.27,3.88,19.94,0,7.66-1.31,14.42-3.88,20.07-1.64,3.58-3.73,6.68-6.24,9.3h44l1.95-13.42Z"/>
      <path class="cls-2" d="M77.22,39.39l17.01-5.56C87.93,14.55,69.81,0,48.43,0v18.15c13.49.12,24.89,9,28.78,21.23Z"/>
      <path class="cls-1" d="M95.41,38.53l-17.05,5.38c.18,1.36.29,2.74.29,4.15,0,16.83-13.65,30.48-30.48,30.48s-30.48-13.65-30.48-30.48c0-15.16,11.06-27.72,25.56-30.08l.19-17.97C19.26,2.36.26,22.6,0,47.43c-.28,26.6,21.06,48.39,47.66,48.66,26.6.28,48.39-21.06,48.66-47.66.04-3.39-.28-6.71-.92-9.91Z"/>
    </g>
  </g>
</svg>