<?xml version="1.0" encoding="UTF-8"?>
<svg id="Capa_2" data-name="Capa 2" xmlns="http://www.w3.org/2000/svg" viewBox="0 0 894.32 96.1">
  <defs>
    <style>
      .cls-1 {
        fill: #3e77d7;
      }

      .cls-2 {
        fill: #fff;
      }
    </style>
  </defs>
  <g id="Capa_1-2" data-name="Capa 1">
    <g>
      <path class="cls-1" d="M145.96,79.16c-4.96,0-9.38-.77-13.26-2.31-3.89-1.54-6.95-3.63-9.17-6.26-2.23-2.64-3.34-5.62-3.34-8.93,0-2.54.63-4.86,1.9-6.95,1.27-2.1,2.98-3.84,5.14-5.23s4.57-2.28,7.22-2.68v-.48c-3.5-.6-6.37-2.15-8.62-4.66-2.25-2.51-3.37-5.47-3.37-8.89,0-3.22,1.02-6.08,3.06-8.59,2.04-2.51,4.83-4.48,8.36-5.92,3.54-1.44,7.56-2.16,12.08-2.16s8.54.72,12.08,2.17c3.54,1.45,6.33,3.43,8.36,5.94,2.04,2.51,3.06,5.36,3.06,8.56,0,3.44-1.14,6.41-3.42,8.9-2.28,2.5-5.14,4.05-8.57,4.65v.48c2.64.4,5.04,1.29,7.19,2.68,2.16,1.39,3.88,3.13,5.16,5.23,1.28,2.1,1.92,4.42,1.92,6.95,0,3.32-1.11,6.29-3.34,8.93-2.23,2.64-5.29,4.73-9.17,6.26-3.89,1.54-8.31,2.31-13.27,2.31ZM145.96,67.65c1.58,0,2.98-.32,4.2-.96,1.22-.64,2.18-1.52,2.89-2.65.71-1.13,1.06-2.4,1.06-3.82s-.36-2.68-1.06-3.78c-.71-1.1-1.67-1.96-2.89-2.59s-2.62-.94-4.2-.94-2.95.31-4.18.94-2.2,1.49-2.91,2.59c-.71,1.1-1.06,2.36-1.06,3.78s.35,2.69,1.06,3.81c.71,1.12,1.68,2,2.91,2.65,1.23.65,2.62.97,4.18.97ZM145.96,41.39c1.4,0,2.64-.29,3.72-.87,1.08-.58,1.93-1.38,2.55-2.4.62-1.02.93-2.17.93-3.45s-.31-2.41-.93-3.4c-.62-.99-1.47-1.77-2.55-2.34-1.08-.57-2.32-.85-3.72-.85s-2.61.28-3.7.85c-1.09.57-1.94,1.35-2.56,2.34-.62.99-.93,2.12-.93,3.4s.31,2.42.93,3.43c.62,1.01,1.47,1.81,2.56,2.4,1.09.59,2.32.88,3.7.88Z"/>
      <path class="cls-1" d="M202.54,80c-5.58-.02-10.39-1.31-14.45-3.87-4.06-2.56-7.19-6.24-9.38-11.06-2.2-4.82-3.29-10.59-3.27-17.33.02-6.75,1.12-12.49,3.31-17.21,2.19-4.72,5.31-8.3,9.35-10.76,4.05-2.46,8.86-3.69,14.43-3.69s10.39,1.23,14.45,3.7c4.06,2.47,7.18,6.06,9.38,10.78,2.2,4.72,3.29,10.44,3.27,17.18,0,6.77-1.1,12.57-3.3,17.39-2.2,4.82-5.32,8.5-9.37,11.05-4.05,2.55-8.86,3.82-14.43,3.82ZM202.54,66.45c2.88,0,5.24-1.5,7.09-4.51,1.85-3.01,2.76-7.74,2.74-14.19,0-4.22-.42-7.66-1.26-10.34-.84-2.68-2-4.66-3.48-5.95-1.48-1.29-3.18-1.93-5.1-1.93-2.88,0-5.23,1.46-7.04,4.38-1.82,2.92-2.75,7.53-2.79,13.85-.02,4.3.39,7.83,1.23,10.6.84,2.77,2,4.81,3.49,6.13,1.49,1.32,3.19,1.98,5.11,1.98Z"/>
      <path class="cls-1" d="M234.05,78.32v-11.99l22.9-18.95c1.52-1.26,2.82-2.44,3.91-3.55,1.09-1.11,1.93-2.25,2.52-3.43.59-1.18.88-2.49.88-3.93,0-1.58-.33-2.93-1-4.05-.67-1.12-1.59-1.98-2.77-2.59-1.18-.61-2.54-.91-4.08-.91s-2.89.31-4.06.93c-1.17.62-2.07,1.53-2.71,2.73-.64,1.2-.96,2.66-.96,4.38h-15.83c0-4.32.97-8.03,2.91-11.15,1.94-3.12,4.68-5.52,8.21-7.19s7.68-2.52,12.44-2.52,9.18.78,12.78,2.35c3.61,1.57,6.4,3.77,8.36,6.61,1.97,2.84,2.95,6.17,2.95,9.98,0,2.36-.49,4.7-1.47,7.03-.98,2.33-2.74,4.9-5.28,7.72-2.54,2.82-6.15,6.18-10.82,10.07l-5.76,4.8v.36h23.98v13.31h-47.12Z"/>
      <path class="cls-1" d="M311.97,80c-5.58-.02-10.39-1.31-14.45-3.87-4.06-2.56-7.19-6.24-9.38-11.06-2.2-4.82-3.29-10.59-3.27-17.33.02-6.75,1.12-12.49,3.31-17.21,2.19-4.72,5.31-8.3,9.35-10.76,4.05-2.46,8.86-3.69,14.43-3.69s10.39,1.23,14.45,3.7c4.06,2.47,7.18,6.06,9.38,10.78,2.2,4.72,3.29,10.44,3.27,17.18,0,6.77-1.1,12.57-3.3,17.39-2.2,4.82-5.32,8.5-9.37,11.05-4.05,2.55-8.86,3.82-14.43,3.82ZM311.97,66.45c2.88,0,5.24-1.5,7.09-4.51,1.85-3.01,2.76-7.74,2.74-14.19,0-4.22-.42-7.66-1.26-10.34-.84-2.68-2-4.66-3.48-5.95-1.48-1.29-3.18-1.93-5.1-1.93-2.88,0-5.23,1.46-7.04,4.38-1.82,2.92-2.75,7.53-2.79,13.85-.02,4.3.39,7.83,1.23,10.6.84,2.77,2,4.81,3.49,6.13,1.49,1.32,3.19,1.98,5.11,1.98Z"/>
      <path class="cls-1" d="M77.22,39.39l17.01-5.56C87.93,14.55,69.81,0,48.43,0v18.15c13.49.12,24.89,9,28.78,21.23Z"/>
      <path class="cls-2" d="M95.41,38.53l-17.05,5.38c.18,1.36.29,2.74.29,4.15,0,16.83-13.65,30.48-30.48,30.48s-30.48-13.65-30.48-30.48c0-15.16,11.06-27.72,25.56-30.08l.19-17.97C19.26,2.36.26,22.6,0,47.43c-.28,26.6,21.06,48.39,47.66,48.66,26.6.28,48.39-21.06,48.66-47.66.04-3.39-.28-6.71-.92-9.91Z"/>
      <path class="cls-2" d="M396.64,16.81l-25.11,35.45-17.53-35.45h-14.3l-.84,7.32c1.16,1.57,2.18,3.3,3.06,5.18,2.38,5.1,3.57,11.3,3.55,18.45,0,7.17-1.2,13.44-3.57,18.62-2.19,4.8-5.28,8.64-9.18,11.44l-.05.42h16.06l3.62-31.68,12.78,25.62h7.72l18.82-26.5-3.55,32.55h15.97l6.85-61.42h-14.3Z"/>
      <path class="cls-2" d="M460.81,64.81l-1.54,13.43h-49.31l7.02-61.42h48.17l-1.54,13.43h-30.97l-1.18,10.35h27.29l-1.48,12.99h-27.29l-1.28,11.23h32.12Z"/>
      <path class="cls-2" d="M481.04,30.59h-18.87l1.58-13.78h55.02l-1.58,13.78h-18.78l-5.45,47.65h-17.37l5.45-47.65Z"/>
      <path class="cls-2" d="M540.55,61.91h-9.48l-1.87,16.32h-17.37l7.02-61.42h28.08c16.76,0,26.3,8.69,24.69,22.73-1.03,9.04-6.18,15.71-14.24,19.39l11.04,19.3h-18.6l-9.28-16.32ZM544.31,30.5h-9.65l-2.06,17.99h9.65c7.2,0,11.17-3.33,11.82-8.95.65-5.7-2.56-9.04-9.76-9.04Z"/>
      <path class="cls-2" d="M577.38,16.81h17.37l-7.02,61.42h-17.37l7.02-61.42Z"/>
      <path class="cls-2" d="M594.04,47.52c2.14-18.69,17.95-31.94,37.43-31.94,11.32,0,19.97,4.12,25.09,11.58l-12.2,10c-3.33-4.65-7.78-7.2-13.66-7.2-10.09,0-17.91,7.02-19.12,17.55-1.2,10.53,5.01,17.55,15.1,17.55,5.88,0,10.91-2.55,15.3-7.2l9.91,10c-6.82,7.46-16.42,11.58-27.74,11.58-19.48,0-32.27-13.25-30.13-31.94Z"/>
      <path class="cls-2" d="M647.67,72.71l7.17-12.81c5.03,3.6,12.47,6.05,19.58,6.05s10.23-2.02,10.58-5c1.11-9.74-34.62-2.63-32.01-25.45,1.25-10.97,11.23-19.92,29.48-19.92,7.98,0,16.02,1.84,21.68,5.35l-6.83,12.9c-5.52-3.16-11.13-4.74-16.48-4.74-7.28,0-10.2,2.46-10.55,5.53-1.07,9.39,34.56,2.37,31.98,25.01-1.22,10.7-11.22,19.83-29.47,19.83-10.09,0-19.78-2.72-25.11-6.76Z"/>
      <path class="cls-2" d="M772.16,16.81l-7.02,61.42h-17.37l2.74-23.96h-23.69l-2.74,23.96h-17.37l7.02-61.42h17.37l-2.64,23.08h23.69l2.64-23.08h17.37Z"/>
      <path class="cls-2" d="M773.61,50.86l3.89-34.05h17.37l-3.83,33.52c-1.2,10.53,2.7,14.74,9.98,14.74s12.06-4.21,13.27-14.74l3.83-33.52h17.11l-3.89,34.05c-2.1,18.34-13.98,28.61-32.14,28.61s-27.69-10.27-25.6-28.61Z"/>
      <path class="cls-2" d="M893.93,61.39c-1.21,10.62-10.7,16.85-27.2,16.85h-33.17l7.02-61.42h31.41c16.15,0,23.29,6.58,22.21,16.06-.67,5.88-4.2,10.62-9.77,13.34,6.65,2.46,10.35,7.72,9.5,15.18ZM856.35,29.36l-1.35,11.85h11.93c5.79,0,9.01-2.02,9.46-5.97s-2.31-5.88-8.1-5.88h-11.93ZM876.6,59.46c.48-4.21-2.45-6.23-8.41-6.23h-14.57l-1.42,12.46h14.57c5.97,0,9.36-2.02,9.84-6.23Z"/>
    </g>
  </g>
</svg>