<?xml version="1.0" encoding="UTF-8"?>
<svg id="Capa_2" data-name="Capa 2" xmlns="http://www.w3.org/2000/svg" viewBox="0 0 696.55 96.1">
  <defs>
    <style>
      .cls-1 {
        fill: #fff;
      }

      .cls-2 {
        fill: #01eac1;
      }

      .cls-3 {
        fill: #057af7;
      }
    </style>
  </defs>
  <g id="Capa_1-2" data-name="Capa 1">
    <g>
      <g>
        <path class="cls-1" d="M177.89,76.34l5.79-29.99-19.4,24.41h-7.11l-9.78-23.61-5.8,29.18h-14.79l11.24-56.59h13.18l13.4,32.66,25.89-32.66h13.18l-11.08,56.59h-14.71Z"/>
        <path class="cls-1" d="M251.81,63.97l-2.46,12.37h-45.43l11.24-56.59h44.38l-2.46,12.37h-28.54l-1.89,9.54h25.14l-2.38,11.96h-25.14l-2.05,10.35h29.59Z"/>
        <path class="cls-1" d="M273.64,32.45h-46.92l2.52-12.69h80.23l-2.52,12.69h-17.3l-8.72,43.9h-16.01l8.72-43.9Z"/>
        <path class="cls-1" d="M331.93,61.31h-8.73l-2.99,15.04h-16.01l11.24-56.59h25.87c15.44,0,23.55,8,20.98,20.94-1.65,8.33-6.92,14.47-14.62,17.87l8.68,17.79h-17.14l-7.28-15.04ZM337.84,32.37h-8.89l-3.29,16.57h8.89c6.63,0,10.55-3.07,11.58-8.25,1.04-5.25-1.66-8.33-8.29-8.33Z"/>
        <path class="cls-1" d="M375.26,19.75h16.01l-11.24,56.59h-16.01l11.24-56.59Z"/>
        <path class="cls-1" d="M394.13,48.05c3.42-17.22,19.02-29.43,36.97-29.43,10.43,0,18.08,3.8,22.21,10.67l-12.02,9.22c-2.71-4.28-6.61-6.63-12.02-6.63-9.3,0-17.05,6.47-18.97,16.17-1.93,9.7,3.26,16.17,12.55,16.17,5.42,0,10.25-2.34,14.66-6.63l8.36,9.22c-6.86,6.87-16.02,10.67-26.45,10.67-17.95,0-28.7-12.21-25.28-29.43Z"/>
        <path class="cls-1" d="M447.48,71.25l7.6-11.8c4.35,3.31,11.02,5.58,17.57,5.58s9.59-1.86,10.13-4.61c1.78-8.97-31.69-2.43-27.52-23.44,2.01-10.1,11.89-18.35,28.7-18.35,7.36,0,14.62,1.7,19.55,4.93l-7.29,11.88c-4.84-2.91-9.89-4.37-14.82-4.37-6.71,0-9.58,2.26-10.15,5.09-1.72,8.65,31.66,2.18,27.52,23.04-1.96,9.86-11.87,18.27-28.69,18.27-9.3,0-18.01-2.51-22.61-6.22Z"/>
        <path class="cls-3" d="M573.26,19.75l-11.24,56.59h-16.01l4.38-22.07h-21.83l-4.38,22.07h-16.01l11.24-56.59h16.01l-4.22,21.26h21.83l4.22-21.26h16.01Z"/>
        <path class="cls-3" d="M577.86,51.12l6.23-31.37h16.01l-6.13,30.88c-1.93,9.7,1.34,13.58,8.05,13.58s11.44-3.88,13.37-13.58l6.13-30.88h15.76l-6.23,31.37c-3.36,16.9-15.1,26.35-31.83,26.35s-24.72-9.46-21.36-26.35Z"/>
        <path class="cls-3" d="M693.8,60.82c-1.94,9.78-11.17,15.52-26.36,15.52h-30.56l11.24-56.59h28.94c14.87,0,20.95,6.06,19.21,14.79-1.08,5.42-4.69,9.78-10.04,12.29,5.94,2.26,8.93,7.11,7.57,13.99ZM661.66,31.31l-2.17,10.91h10.99c5.34,0,8.45-1.86,9.18-5.5.71-3.56-1.67-5.42-7.01-5.42h-10.99ZM677.98,59.04c.77-3.88-1.77-5.74-7.27-5.74h-13.42l-2.28,11.48h13.42c5.5,0,8.78-1.86,9.55-5.74Z"/>
      </g>
      <g>
        <path class="cls-2" d="M77.22,39.39l17.01-5.56C87.93,14.55,69.81,0,48.43,0v18.15c13.49.12,24.89,9,28.78,21.23Z"/>
        <path class="cls-3" d="M95.41,38.53l-17.05,5.38c.18,1.36.29,2.74.29,4.15,0,16.83-13.65,30.48-30.48,30.48s-30.48-13.65-30.48-30.48c0-15.16,11.06-27.72,25.56-30.08l.19-17.97C19.26,2.36.26,22.6,0,47.43c-.28,26.6,21.06,48.39,47.66,48.66,26.6.28,48.39-21.06,48.66-47.66.04-3.39-.28-6.71-.92-9.91Z"/>
      </g>
    </g>
  </g>
</svg>