<?xml version="1.0" encoding="UTF-8"?>
<svg id="Capa_2" data-name="Capa 2" xmlns="http://www.w3.org/2000/svg" viewBox="0 0 96.33 96.1">
  <defs>
    <style>
      .cls-1 {
        fill: #01eac1;
      }

      .cls-2 {
        fill: #057af7;
      }
    </style>
  </defs>
  <g id="Capa_1-2" data-name="Capa 1">
    <path class="cls-1" d="M77.22,39.39l17.01-5.56C87.93,14.55,69.81,0,48.43,0v18.15c13.49.12,24.89,9,28.78,21.23Z"/>
    <path class="cls-2" d="M95.41,38.53l-17.05,5.38c.18,1.36.29,2.74.29,4.15,0,16.83-13.65,30.48-30.48,30.48s-30.48-13.65-30.48-30.48c0-15.16,11.06-27.72,25.56-30.08l.19-17.97C19.26,2.36.26,22.6,0,47.43c-.28,26.6,21.06,48.39,47.66,48.66,26.6.28,48.39-21.06,48.66-47.66.04-3.39-.28-6.71-.92-9.91Z"/>
  </g>
</svg>